<svg width="162" height="198" viewBox="0 0 162 198" fill="none" xmlns="http://www.w3.org/2000/svg">
<path fill-rule="evenodd" clip-rule="evenodd" d="M65.9343 22.152C63.1279 18.8668 61.2286 14.8406 61.5459 10.3292C62.4604 -2.66942 80.6033 0.19011 84.1325 6.7507C87.6617 13.3113 87.2423 29.9528 82.6812 31.1253C80.8622 31.593 76.9872 30.4475 73.0434 28.0767L75.5189 45.5429H60.9023L65.9343 22.152Z" fill="#B28B67"/>
<path fill-rule="evenodd" clip-rule="evenodd" d="M73.7743 11.7647C74.3338 19.5377 75.8138 23.4242 78.2143 23.4242C81.8154 23.4242 84.8706 21.1443 86.4507 21.1443C87.6025 21.1443 87.3453 22.5818 86.5818 23.6476C85.9519 24.527 82.8844 25.3745 82.8844 26.7378C82.8844 28.1011 85.308 27.0464 85.308 27.8549C85.308 29.1923 85.7339 31.7069 83.4065 31.7069C81.0511 31.7069 74.2977 30.8508 73.1404 27.3643C72.3934 25.1142 71.9105 20.4515 71.6915 13.3763C71.5487 13.3594 71.4032 13.3507 71.2558 13.3507C69.2377 13.3507 67.6016 14.9823 67.6016 16.9951C67.6016 18.0169 68.0233 18.9404 68.7025 19.6022C67.8569 20.7924 66.9094 22.0358 65.8235 23.3188C61.7443 20.878 58.7173 13.7327 62.7054 6.8687C63.8077 3.50612 66.3032 1.71004 69.2505 0.876063C71.6379 -0.119943 74.1163 -0.232245 76.2084 0.364852C80.3095 0.715681 83.9716 1.96288 85.0094 2.70357C85.0094 6.57587 84.2571 7.72477 77.8313 7.6235C76.2523 8.45514 75.0385 9.88723 73.7743 11.7647Z" fill="#191847"/>
<path fill-rule="evenodd" clip-rule="evenodd" d="M133.305 106.948C137.678 101.034 148.608 104.949 148.602 109.845C148.584 122.701 136.821 183.733 136.207 187.587C135.593 191.44 129.013 192.7 128.63 187.886C128.021 180.225 126.888 153.668 128.021 141.312C128.352 137.704 128.701 134.215 129.053 130.947C122.871 142.024 113.47 157.68 100.85 177.916L93.8362 174.72C99.3439 156.622 103.86 143.845 107.385 136.389C113.42 123.624 119.079 112.692 121.461 108.841C124.607 103.755 129.71 104.43 133.305 106.948Z" fill="#B28B67"/>
<path fill-rule="evenodd" clip-rule="evenodd" d="M94.3374 164.669L118.411 107.794C124.178 98.5414 140.347 109.676 138.38 115.043C133.915 127.226 111.207 166.667 109.877 170.297L94.3374 164.669Z" fill="#1F28CF"/>
<path fill-rule="evenodd" clip-rule="evenodd" d="M149.211 114.286C149.211 130.407 142.125 168.302 142.121 171.852L124.957 171.274C127.957 138.327 129.222 121.742 128.753 121.519C127.696 121.017 85.4229 127.354 72.7446 127.833C54.4624 128.523 46.8995 117.337 46.2858 96.1091H81.699C111.98 99.7141 131.883 102.221 141.406 103.631C147.521 104.536 149.211 109.845 149.211 114.286Z" fill="#2B44FF"/>
<path fill-rule="evenodd" clip-rule="evenodd" d="M111.183 161.584L115.113 162.562C120.335 163.86 123.513 169.135 122.211 174.343L121.032 179.057C119.73 184.265 114.442 187.435 109.22 186.136L105.29 185.159C100.068 183.86 96.89 178.586 98.192 173.378L99.3707 168.663C100.673 163.455 105.961 160.286 111.183 161.584ZM107.111 166.226C105.806 165.902 104.484 166.694 104.158 167.996L102.105 176.209C101.78 177.511 102.574 178.829 103.88 179.154L113.291 181.494C114.597 181.819 115.919 181.027 116.244 179.725L118.297 171.512C118.623 170.21 117.829 168.891 116.523 168.567L107.111 166.226Z" fill="#C5CFD6"/>
<path fill-rule="evenodd" clip-rule="evenodd" d="M127.699 178.807C127.017 180.621 126.677 181.979 126.677 182.879C126.677 183.975 126.86 185.573 127.226 187.674C128.5 187.674 139.95 187.674 161.576 187.674C162.468 184.731 161.953 183.142 160.03 182.907C158.107 182.673 156.509 182.461 155.237 182.272L139.271 175.173C138.964 175.037 138.604 175.174 138.467 175.481C138.465 175.486 138.463 175.491 138.46 175.497L137.434 177.979C135.654 178.808 134.207 179.222 133.094 179.222C132.189 179.222 130.941 178.858 129.347 178.129L129.347 178.129C128.735 177.85 128.013 178.117 127.732 178.727C127.72 178.754 127.709 178.78 127.699 178.807Z" fill="#E4E4E4"/>
<path d="M157.433 187.674H129.417C128.24 187.674 127.286 188.626 127.286 189.8C127.286 190.974 128.24 191.926 129.417 191.926H157.433C158.61 191.926 159.564 190.974 159.564 189.8C159.564 188.626 158.61 187.674 157.433 187.674Z" fill="#2F3676"/>
<path fill-rule="evenodd" clip-rule="evenodd" d="M44.4586 99.6014H109.624C112.988 99.6014 115.714 102.321 115.714 105.675V135.438H40.8045C39.4591 135.438 38.3684 134.35 38.3684 133.008V105.675C38.3684 102.321 41.0951 99.6014 44.4586 99.6014Z" fill="#2F3676"/>
<path fill-rule="evenodd" clip-rule="evenodd" d="M109.624 99.6014H110.96C113.943 99.6014 116.487 101.756 116.97 104.691L130.331 185.852H123.823" fill="#2F3676"/>
<path d="M127.286 198C133.34 198 138.248 193.105 138.248 187.067C138.248 181.029 133.34 176.134 127.286 176.134C121.231 176.134 116.323 181.029 116.323 187.067C116.323 193.105 121.231 198 127.286 198Z" fill="#191847"/>
<path fill-rule="evenodd" clip-rule="evenodd" d="M46.2857 196.785C20.7228 196.785 0 176.118 0 150.623C0 125.128 20.7228 104.461 46.2857 104.461C71.8486 104.461 92.5715 125.128 92.5715 150.623C92.5715 176.118 71.8486 196.785 46.2857 196.785ZM46.2857 188.282C67.1397 188.282 84.0451 171.421 84.0451 150.623C84.0451 129.825 67.1397 112.964 46.2857 112.964C25.4318 112.964 8.52632 129.825 8.52632 150.623C8.52632 171.421 25.4318 188.282 46.2857 188.282Z" fill="#191847"/>
<path d="M48.7219 110.535H43.8497V190.711H48.7219V110.535Z" fill="#191847"/>
<path d="M75.5695 123.135L73.8469 121.417C73.3712 120.943 72.6 120.943 72.1243 121.417L17.0019 176.393C16.5262 176.867 16.5262 177.636 17.0019 178.111L18.7244 179.829C19.2001 180.303 19.9713 180.303 20.447 179.829L75.5695 124.853C76.0451 124.379 76.0451 123.61 75.5695 123.135Z" fill="#191847"/>
<path d="M86.4812 151.838V149.408C86.4812 148.737 85.9359 148.193 85.2632 148.193H7.30824C6.63554 148.193 6.0902 148.737 6.0902 149.408V151.838C6.0902 152.509 6.63554 153.052 7.30824 153.052H85.2632C85.9359 153.052 86.4812 152.509 86.4812 151.838Z" fill="#191847"/>
<path d="M73.8468 179.829L75.5694 178.111C76.0451 177.636 76.0451 176.867 75.5694 176.393L20.4469 121.417C19.9713 120.943 19.2 120.943 18.7244 121.417L17.0018 123.135C16.5261 123.61 16.5261 124.379 17.0018 124.853L72.1242 179.829C72.5999 180.303 73.3711 180.303 73.8468 179.829Z" fill="#191847"/>
<path fill-rule="evenodd" clip-rule="evenodd" d="M107.664 88.1892L127.091 102.417C132.359 103.835 136.761 105.599 140.297 107.709C141.132 108.468 142.141 110.005 138.678 109.739C135.215 109.474 131.56 109.35 131.082 110.528C130.604 111.706 132.7 113.115 131.734 114.704C131.09 115.764 128.048 113.107 122.607 106.733L103.369 98.7768L107.664 88.1892ZM33.0747 88.6802L45.8017 88.7302C37.9434 114.031 33.7011 127.455 33.0747 129.003C31.6655 132.486 34.6476 137.791 35.9229 140.642C31.7694 142.495 32.2119 135.63 26.9723 138.062C22.1898 140.281 18.5518 144.301 13.0264 140.901C12.347 140.483 11.6026 138.909 13.4013 137.679C17.8823 134.615 24.3397 129.251 25.2122 127.486C26.4021 125.079 29.0229 112.143 33.0747 88.6802Z" fill="#B28B67"/>
<path fill-rule="evenodd" clip-rule="evenodd" d="M69.2428 35.4187L74.5091 34.5178C94.0486 51.3521 102.074 83.6928 126.025 100.825L120.26 107.952C78.7101 102.821 68.4116 63.3728 69.2428 35.4187Z" fill="#E87613"/>
<path fill-rule="evenodd" clip-rule="evenodd" d="M46.2858 101.424C67.4017 101.424 82.9341 101.424 92.883 101.424C95.0122 101.424 94.611 98.3572 94.3032 96.8099C90.7509 78.9521 76.8839 59.7022 76.8839 34.2821L63.443 32.1801C52.3257 50.0123 48.4812 71.9675 46.2858 101.424Z" fill="#DDE3E9"/>
<path fill-rule="evenodd" clip-rule="evenodd" d="M46.6602 49.7083C44.7081 49.1486 43.1623 47.8434 42.0226 45.7925C37.11 36.9517 38.8842 32.0842 44.1342 30.4843C49.3843 28.8843 54.0662 32.18 62.431 32.18C62.886 32.18 63.3027 32.2084 63.6811 32.2653L67.8888 32.5048C79.9611 73.3101 83.2906 100.535 77.8772 114.179H41.2016C39.0286 119.232 36.9492 123.484 34.9634 126.934H24.97C24.0295 96.605 31.2595 70.863 46.6602 49.7083Z" fill="#FF9B21"/>
<path fill-rule="evenodd" clip-rule="evenodd" d="M49.1878 93.2223C50.3412 102.847 52.216 109.833 54.812 114.179H41.2014C43.7362 108.284 46.3983 101.299 49.1878 93.2223Z" fill="black" fill-opacity="0.1"/>
</svg>
