<svg width="195" height="304" viewBox="0 0 195 304" fill="none" xmlns="http://www.w3.org/2000/svg">
<path fill-rule="evenodd" clip-rule="evenodd" d="M95.0627 28.7995C91.5865 24.7138 89.2338 19.7069 89.6269 14.0964C90.7597 -2.06893 113.233 1.48723 117.605 9.6461C121.976 17.805 121.457 38.5006 115.807 39.9588C113.554 40.5404 108.754 39.1158 103.869 36.1675L106.935 57.8887H88.8297L95.0627 28.7995Z" fill="#B28B67"/>
<path fill-rule="evenodd" clip-rule="evenodd" d="M109.62 10.8292C107.163 12.2054 105.414 14.784 103.309 18.1664C102.797 17.9647 102.238 17.8539 101.654 17.8539C99.1543 17.8539 97.1278 19.883 97.1278 22.3861C97.1278 23.6568 97.65 24.8054 98.4913 25.6283C97.444 27.1086 96.2702 28.6549 94.9252 30.2504C89.906 27.2352 86.1728 18.4472 90.9652 9.96345C95.0886 -7.03002 118.453 3.51764 122.948 0.651623C123.931 6.81826 120.762 11.7906 109.62 10.8292Z" fill="#191847"/>
<path fill-rule="evenodd" clip-rule="evenodd" d="M88.1005 123.466L125.127 217.304L149.961 296.635H159.768L121.802 123.466L88.1005 123.466Z" fill="#997659"/>
<path fill-rule="evenodd" clip-rule="evenodd" d="M80.6444 123.466C80.2501 156.441 74.5 200.837 73.5813 202.892C72.9689 204.263 51.8262 221.689 10.1533 255.171L16.9076 262.408C66.0777 233.702 91.8005 217.434 94.0758 213.605C97.4889 207.862 108.601 155.013 117.522 123.466H80.6444Z" fill="#B28B67"/>
<path fill-rule="evenodd" clip-rule="evenodd" d="M9.25003 252.755C6.98164 253.558 5.41903 254.319 4.5622 255.039C3.52008 255.915 2.14505 257.366 0.4371 259.394C1.45151 260.604 10.5682 271.483 27.7872 292.03C31.2981 290.526 32.3996 288.766 31.0916 286.751C29.7835 284.736 28.7131 283.049 27.8802 281.689L21.9219 260.846C21.8073 260.444 21.3896 260.212 20.989 260.327C20.9822 260.329 20.9754 260.331 20.9686 260.333L17.7892 261.343C15.5834 260.314 14.0374 259.27 13.1511 258.213C12.4311 257.353 11.7832 255.876 11.2076 253.779L11.2076 253.779C10.9867 252.975 10.1563 252.502 9.35281 252.723C9.31817 252.732 9.28389 252.743 9.25003 252.755Z" fill="#E4E4E4"/>
<path fill-rule="evenodd" clip-rule="evenodd" d="M145.946 292.973C145.102 295.229 144.68 296.917 144.68 298.037C144.68 299.399 144.907 301.387 145.36 304C146.938 304 161.121 304 187.909 304C189.015 300.34 188.376 298.364 185.994 298.072C183.612 297.78 181.633 297.517 180.057 297.281L160.281 288.454C159.9 288.284 159.454 288.455 159.285 288.836C159.282 288.842 159.279 288.849 159.276 288.856L158.005 291.943C155.8 292.974 154.008 293.489 152.629 293.489C151.508 293.489 149.961 293.036 147.988 292.13L147.988 292.13C147.23 291.782 146.335 292.115 145.987 292.873C145.972 292.906 145.959 292.939 145.946 292.973Z" fill="#E4E4E4"/>
<path fill-rule="evenodd" clip-rule="evenodd" d="M112.995 288.464L159.62 283.397L125.066 123.466H83.3055L112.995 288.464Z" fill="#69A1AC"/>
<path fill-rule="evenodd" clip-rule="evenodd" d="M19.7975 243.495L50.3806 279.742C82.5932 244.514 101.373 221.528 106.721 210.784C112.068 200.04 116.875 170.934 121.142 123.466H74.1275C71.7968 165.226 70.2258 187.078 69.4144 189.021C68.6029 190.964 52.064 209.122 19.7975 243.495Z" fill="#89C5CC"/>
<path fill-rule="evenodd" clip-rule="evenodd" d="M156.165 114.335L178.336 135.852C184.787 138.59 190.072 141.612 194.192 144.92C195.119 146.032 196.128 148.163 191.768 147.209C187.409 146.256 182.78 145.448 181.961 146.859C181.141 148.269 183.556 150.431 182.041 152.276C181.032 153.507 177.637 149.593 171.856 140.533L148.801 127.011L156.165 114.335ZM47.75 94.8616L64.888 94.9256C51.8352 136.997 44.9063 159.025 44.1014 161.009C42.2904 165.474 46.1228 172.275 47.7616 175.929C42.4239 178.305 42.9927 169.505 36.2593 172.622C30.1134 175.466 25.4382 180.62 18.3376 176.262C17.4646 175.726 16.5079 173.708 18.8193 172.131C24.5778 168.203 32.8762 161.328 33.9975 159.065C35.5265 155.979 40.1107 134.578 47.75 94.8616Z" fill="#B28B67"/>
<path fill-rule="evenodd" clip-rule="evenodd" d="M99.9724 46.496L106.74 45.3412C117.401 82.8329 172.178 108.389 175.54 122.404C176.773 127.544 173.055 130.142 174.976 131.708L166.179 138.114C164.69 136.385 161.511 139.548 154.872 137.335C148.234 135.123 99.9724 90.8894 99.9724 46.496Z" fill="#DB2721"/>
<path fill-rule="evenodd" clip-rule="evenodd" d="M111.357 51.4802C110.576 101.116 139.418 113.778 132.994 133.69C127.689 150.133 76.9095 167.809 68.1225 151.691C64.5656 145.167 62.9519 137.276 62.7688 128.697C60.523 135.288 58.7468 140.962 57.4402 145.719C55.1863 153.925 46.4481 155.23 46.4481 158.391L34.9356 155.23C35.7165 150.935 30.2892 148.843 31.7444 139.248C38.2645 96.255 55.7828 65.0907 84.2994 45.7552L84.6009 41.4651C84.7205 39.8018 86.1614 38.5476 87.8231 38.6605L109.128 40.1426C110.791 40.2556 112.045 41.6989 111.93 43.3636C111.93 43.3645 111.93 43.3654 111.927 43.3661L111.357 51.4802Z" fill="#FF4133"/>
</svg>
