<svg width="238" height="396" viewBox="0 0 238 396" fill="none" xmlns="http://www.w3.org/2000/svg">
<path fill-rule="evenodd" clip-rule="evenodd" d="M117.606 36.3802C113.002 30.9848 109.886 24.3727 110.406 16.9636C111.907 -4.38406 141.674 0.312147 147.464 11.0866C153.254 21.8611 152.566 49.1914 145.083 51.1171C142.098 51.885 135.741 50.0038 129.27 46.1103L133.332 74.795H109.35L117.606 36.3802Z" fill="#B28B67"/>
<path fill-rule="evenodd" clip-rule="evenodd" d="M130.469 19.3212C131.387 32.0868 133.815 38.4696 137.754 38.4696C143.662 38.4696 148.675 34.7252 151.267 34.7252C153.157 34.7252 152.735 37.0861 151.482 38.8365C150.449 40.2806 145.416 41.6726 145.416 43.9115C145.416 46.1504 149.392 44.4183 149.392 45.7461C149.392 47.9425 150.091 52.0722 146.273 52.0722C142.408 52.0722 131.328 50.6663 129.429 44.9404C128.204 41.245 127.411 33.5875 127.052 21.968C126.818 21.9401 126.579 21.9258 126.337 21.9258C123.026 21.9258 120.342 24.6055 120.342 27.911C120.342 29.5891 121.033 31.1059 122.148 32.1926C120.761 34.1474 119.206 36.1894 117.424 38.2965C110.732 34.2879 105.765 22.5533 112.308 11.2805C114.117 5.7581 118.211 2.8084 123.047 1.43876C126.964 -0.196983 131.03 -0.381415 134.463 0.599197C141.191 1.17536 147.2 3.22364 148.902 4.44007C148.902 10.7996 147.668 12.6864 137.125 12.5201C134.535 13.8859 132.543 16.2378 130.469 19.3212Z" fill="#191847"/>
<path fill-rule="evenodd" clip-rule="evenodd" d="M101.357 157.59L137.583 284.503L164.014 378.044H183.292L155.205 157.59H101.357Z" fill="#191847"/>
<path fill-rule="evenodd" clip-rule="evenodd" d="M91.6684 157.59C90.8305 223.002 87.9732 258.68 87.0935 264.623C86.2137 270.566 72.911 308.373 47.1853 378.044H67.1559C99.9067 311.207 118.189 273.4 122.003 264.623C125.817 255.846 137.587 220.169 155.314 157.59H91.6684Z" fill="#2F3676"/>
<path fill-rule="evenodd" clip-rule="evenodd" d="M45.4004 396L46.3996 375.052H67.3832C77.333 382.035 90.3228 387.687 106.353 392.01V396H68.3824L55.3926 394.005V396H45.4004Z" fill="#191847"/>
<path fill-rule="evenodd" clip-rule="evenodd" d="M161.31 396L162.309 375.052H183.292C193.242 382.035 206.232 387.687 222.262 392.01V396H184.292L171.302 394.005V396H161.31Z" fill="#191847"/>
<path fill-rule="evenodd" clip-rule="evenodd" d="M185.649 141.24L215.812 166.769C224.273 169.694 231.276 173.087 236.819 176.949C238.099 178.287 239.574 180.92 233.937 180.09C228.299 179.259 222.332 178.638 221.414 180.513C220.497 182.389 223.766 184.937 222.002 187.43C220.827 189.093 216.152 184.392 207.979 173.328L177.406 158.095L185.649 141.24ZM49.0647 130.194L66.7626 132.76C47.7654 173.907 37.5808 195.669 36.2088 198.043C33.1217 203.387 36.7523 212.694 38.1716 217.621C30.9989 219.689 33.2896 208.625 24.2201 211.385C15.9418 213.903 9.11052 219.613 0.911688 212.824C-0.0963103 211.989 -0.945426 209.259 2.25846 207.669C10.2405 203.707 21.96 196.456 23.7817 193.784C26.266 190.14 34.6937 168.943 49.0647 130.194Z" fill="#B28B67"/>
<path fill-rule="evenodd" clip-rule="evenodd" d="M123.035 58.1682L134.001 54.5478C148.877 91.6462 171.062 127.541 208.13 157.86L198.964 173.647C166.387 154.489 135.548 139.607 123.035 110.86C118.835 101.212 122.692 69.7046 123.035 58.1682Z" fill="#C5CFD6"/>
<path fill-rule="evenodd" clip-rule="evenodd" d="M85.369 162.578C116.783 165.903 141.509 165.903 159.547 162.578C161.782 162.166 162.135 158.43 161.098 155.895C144.959 116.416 133.891 81.9689 133.891 54.5477C130.93 56.0382 125.747 56.2616 118.343 55.2178C98.445 83.4762 89.2985 115.899 85.369 162.578Z" fill="#323337"/>
<path fill-rule="evenodd" clip-rule="evenodd" d="M113.397 52.8493H121.689C123.62 64.1861 129.71 217.704 148.51 267.923H46.7847C48.9901 221.918 66.3869 166.655 84.0101 120.41C68.4269 134.646 54.8449 158.768 43.264 192.776L24.2097 187.893C38.3772 126.947 67.5056 82.1517 111.595 53.5067C111.69 53.2865 111.785 53.0674 111.88 52.8493H112.614C112.884 52.6762 113.155 52.5038 113.426 52.3319L113.397 52.8493Z" fill="#DDE3E9"/>
</svg>
