<svg width="249" height="335" viewBox="0 0 249 335" fill="none" xmlns="http://www.w3.org/2000/svg">
<path fill-rule="evenodd" clip-rule="evenodd" d="M133.87 46.378C131.447 41.2682 130.417 35.5272 132.343 29.9217C137.893 13.771 159.775 23.5316 162 33.0336C164.225 42.5356 158.066 63.4668 151.925 63.4081C149.476 63.3847 144.983 60.6229 140.818 56.2862L138.026 79.2414L119.618 74.2952L133.87 46.378Z" fill="#D4A181"/>
<path fill-rule="evenodd" clip-rule="evenodd" d="M140.55 46.9325C137.093 50.713 133.052 53.1736 129.898 52.3262C123.907 50.7164 121.794 41.5398 124.101 32.904C124.182 32.6006 124.269 32.3008 124.361 32.0048C116.858 34.663 109.677 41.9466 101.292 39.6935C89.8838 36.6281 91.5187 12.3362 107.457 16.6189C118.297 19.5315 123.205 22.549 127.174 26.1272C128.765 23.8086 130.723 22.0258 132.814 20.9756C133.344 20.6259 134.084 20.3543 134.997 20.1633C135.561 20.0257 136.128 19.9427 136.695 19.9179C139.739 19.6413 143.946 19.9995 148.471 21.0473C149.316 21.2429 150.141 21.4553 150.94 21.6816C152.085 17.4484 156.431 14.9392 160.659 16.0753C164.895 17.2135 167.409 21.5798 166.274 25.8278C165.176 29.9359 161.068 32.4288 156.967 31.5589C154.463 31.6531 151.351 31.3801 147.997 30.7162C147.994 32.0087 147.802 33.4261 147.388 34.975C147.023 36.3426 146.484 37.7526 145.814 39.1509C145.327 38.107 144.52 37.2943 143.55 37.0337C140.836 36.3046 138.349 38.0355 137.714 40.412C136.909 43.4283 138.062 46.0769 140.55 46.9325Z" fill="#191847"/>
<path fill-rule="evenodd" clip-rule="evenodd" d="M106.863 144.688L165.867 243.608L210.103 327.236H219.631L145.513 144.688L106.863 144.688Z" fill="#BA8B72"/>
<path fill-rule="evenodd" clip-rule="evenodd" d="M204.277 323.376C203.388 325.754 202.944 327.533 202.944 328.714C202.944 330.15 203.183 332.245 203.66 335C205.321 335 220.25 335 248.446 335C249.61 331.142 248.938 329.059 246.431 328.751C243.923 328.443 241.84 328.165 240.182 327.918L219.365 318.612C218.965 318.432 218.495 318.613 218.317 319.015C218.314 319.021 218.311 319.028 218.308 319.035L216.97 322.29C214.649 323.376 212.762 323.919 211.311 323.919C210.132 323.919 208.503 323.442 206.426 322.487L206.426 322.487C205.628 322.12 204.686 322.471 204.32 323.271C204.305 323.305 204.29 323.34 204.277 323.376Z" fill="#E4E4E4"/>
<path fill-rule="evenodd" clip-rule="evenodd" d="M197.817 313.845L216.192 308.271C208.141 284.137 198.274 257.579 186.591 228.596C174.907 199.613 162.36 171.644 148.948 144.688H97.051C111.962 178.786 127.77 209.768 144.474 237.634C161.178 265.501 178.959 290.905 197.817 313.845Z" fill="#DB2721"/>
<path fill-rule="evenodd" clip-rule="evenodd" d="M102.985 144.688C97.416 179.449 86.6752 223.861 85.6615 225.231C84.9858 226.145 60.6581 234.32 12.6786 249.755L14.7368 258.181C71.9522 249.902 102.1 243.48 105.18 238.913C109.8 232.062 132.867 177.943 141.801 144.688H102.985Z" fill="#D4A181"/>
<path fill-rule="evenodd" clip-rule="evenodd" d="M29.5442 242.472L33.1694 256.042C75.9633 259.806 102.184 257.086 111.832 247.883C121.479 238.68 132.475 204.282 144.818 144.688H95.3313C87.5109 193.487 83.1388 218.911 82.215 220.96C81.2911 223.008 63.7342 230.179 29.5442 242.472Z" fill="#FF4133"/>
<path fill-rule="evenodd" clip-rule="evenodd" d="M15.0283 246.245C12.5386 245.781 10.714 245.651 9.55456 245.856C8.14439 246.105 6.12802 246.705 3.50546 247.654C3.79391 249.295 6.38628 264.038 11.2826 291.884C15.2739 292.363 17.2028 291.338 17.0695 288.808C16.9363 286.279 16.8473 284.173 16.8028 282.492L22.3271 260.319C22.4334 259.892 22.1747 259.46 21.7492 259.353C21.742 259.351 21.7346 259.35 21.7273 259.348L18.2985 258.592C16.8288 256.488 15.9679 254.72 15.7159 253.286C15.5111 252.122 15.6973 250.431 16.2745 248.213L16.2745 248.213C16.496 247.362 15.9876 246.492 15.1389 246.27C15.1024 246.26 15.0654 246.252 15.0283 246.245Z" fill="#E4E4E4"/>
<path fill-rule="evenodd" clip-rule="evenodd" d="M176.995 138.348L198.71 161.128C205.153 164.155 210.405 167.432 214.465 170.959C215.365 172.128 216.312 174.342 211.926 173.212C207.539 172.083 202.875 171.093 201.994 172.506C201.113 173.918 203.484 176.213 201.883 178.046C200.815 179.268 197.512 175.147 191.973 165.682L169.077 151.043L176.995 138.348ZM65.4585 110.738L78.7908 115.674C57.2138 144.655 45.6955 159.959 44.236 161.586C40.9519 165.246 42.2338 173.115 42.5216 177.197C36.6038 177.623 40.2155 169.364 32.7089 170.016C25.8572 170.611 19.6021 173.938 14.3527 167.278C13.7073 166.459 13.499 164.187 16.2526 163.476C23.113 161.705 33.4228 157.986 35.2811 156.201C37.8153 153.767 47.8744 138.613 65.4585 110.738Z" fill="#D4A181"/>
<path fill-rule="evenodd" clip-rule="evenodd" d="M182.455 141.373C185.705 141.709 189.102 142.86 192.623 144.786C194.355 145.734 194.993 147.911 194.048 149.648C193.499 150.657 192.536 151.296 191.487 151.468C192.111 152.119 192.742 152.768 193.379 153.415L184.821 165.185C160.669 147.262 137.534 132.879 130.036 109.015C127.52 101.005 133.19 76.3131 134.421 67.1831L143.389 65.2224C150.798 91.45 162.5 117.424 182.455 141.373Z" fill="#69A1AC"/>
<path fill-rule="evenodd" clip-rule="evenodd" d="M90.2213 146.274C114.33 153.33 133.681 156.751 148.274 156.539C150.082 156.513 151.335 148.939 150.887 146.73C143.91 112.341 139.74 87.3323 143.667 64.9976C141.136 65.8017 137.048 65.2665 131.403 63.3918C111.784 83.6549 99.9817 108.798 90.2213 146.274Z" fill="#191847"/>
<path fill-rule="evenodd" clip-rule="evenodd" d="M84.985 149.268C84.2886 148.333 84.061 147.075 84.4889 145.896L85.3036 143.651C85.8558 142.13 87.3284 141.212 88.8612 141.298C89.3305 140.168 89.7622 139.04 90.1531 137.913C93.4549 128.393 92.4471 118.307 94.2329 108.894C79.7665 117.429 65.2196 134.012 50.592 158.641L36.5889 151.672C37.5216 149.672 38.4699 147.701 39.4339 145.76C37.9 144.488 36.6907 139.684 38.2553 139.193C39.8711 138.686 41.5348 138.422 43.2427 138.395C63.977 99.8869 91.3825 73.889 125.459 60.4012L128.18 60.8823L134.353 61.9738C125.628 96.2352 148.466 178.441 124.523 240.965C100.397 242.059 70.1028 220.027 35.574 227.244C41.3589 201.383 70.7878 175.004 84.985 149.268L84.985 149.268Z" fill="#89C5CC"/>
<path fill-rule="evenodd" clip-rule="evenodd" d="M128.551 61.7566L122.329 73.4847L128.813 84.2481L120.182 90.2792L132.583 123.921L116.212 89.64L124.723 83.5249L118.961 74.0075L128.551 61.7566Z" fill="black" fill-opacity="0.1"/>
<path fill-rule="evenodd" clip-rule="evenodd" d="M125.304 134.762C123.577 134.457 122.423 132.805 122.728 131.072C123.033 129.34 124.68 128.183 126.408 128.489C128.135 128.794 129.289 130.446 128.984 132.179C128.679 133.911 127.032 135.068 125.304 134.762ZM126.043 153.49C124.315 153.184 123.162 151.532 123.467 149.8C123.771 148.068 125.419 146.911 127.146 147.216C128.874 147.522 130.027 149.174 129.723 150.906C129.418 152.639 127.771 153.795 126.043 153.49ZM123.654 171.665C121.926 171.359 120.773 169.707 121.077 167.975C121.382 166.242 123.029 165.086 124.757 165.391C126.484 165.696 127.638 167.348 127.333 169.081C127.029 170.813 125.381 171.97 123.654 171.665Z" fill="black" fill-opacity="0.4"/>
</svg>
