<svg width="171" height="246" viewBox="0 0 171 246" fill="none" xmlns="http://www.w3.org/2000/svg">
<path fill-rule="evenodd" clip-rule="evenodd" d="M109.413 11.4071C111.531 19.2066 114.291 36.7382 111.475 39.4883H93.6572C93.6554 39.4567 93.6536 39.4252 93.6519 39.3938C87.0479 38.6634 81.9115 33.0675 81.9115 26.2728V13.378C81.9115 6.0869 87.8257 0.17627 95.1212 0.17627H96.35C102.975 0.17627 108.461 5.05081 109.413 11.4071Z" fill="#191847"/>
<path fill-rule="evenodd" clip-rule="evenodd" d="M88.8311 23.8105C86 20.4893 84.0839 16.4192 84.404 11.8585C85.3266 -1.28216 103.63 1.60861 107.19 8.24088C110.751 14.8731 110.327 31.6964 105.726 32.8818C103.891 33.3545 99.9818 32.1966 96.0031 29.7999L98.5004 47.4569H83.7548L88.8311 23.8105Z" fill="#D4A181"/>
<path fill-rule="evenodd" clip-rule="evenodd" d="M92.8172 21.5911C93.4966 28.8846 93.2244 37.2137 91.1996 39.1908H73.3819C72.3892 21.9526 81.9836 28.628 81.9836 12.3978C82.5817 11.8137 83.147 11.2355 83.7063 10.7369L83.6865 10.2596C86.7718 3.94706 90.6861 0.790771 95.4293 0.790771C102.544 0.790771 104.79 4.09939 106.702 6.90846C105.272 11.8116 99.7234 12.5386 94.793 15.5949C94.2118 15.123 93.4707 14.8401 92.6636 14.8401C90.7973 14.8401 89.2844 16.3522 89.2844 18.2173C89.2844 20.0825 90.7973 21.5945 92.6636 21.5945C92.7151 21.5945 92.7663 21.5934 92.8172 21.5911Z" fill="#191847"/>
<path fill-rule="evenodd" clip-rule="evenodd" d="M60.0436 158.651C74.7827 162.772 87.4992 164.832 98.193 164.832C108.887 164.832 118.82 161.659 127.992 155.314C113.568 151.085 101.69 148.971 92.3564 148.971C83.0231 148.971 72.2521 152.198 60.0436 158.651Z" fill="#1F28CF"/>
<path fill-rule="evenodd" clip-rule="evenodd" d="M110.952 170.77C110.81 170.556 110.69 170.324 110.595 170.073C108.625 164.866 77.0681 108.692 73.9243 98.4218H109.453C111.843 106.23 122.602 155.232 124.116 165.009C128.893 180.43 138.729 230.375 139.984 233.835C141.305 237.475 133.873 241.267 131.892 236.792C128.741 229.672 121.232 209.97 117.889 197.941C114.755 186.663 112.203 176.517 110.952 170.77Z" fill="#BA8B72"/>
<path fill-rule="evenodd" clip-rule="evenodd" d="M81.8852 177.628C67.458 181.273 14.6861 187.861 11.0646 188.894C7.33928 189.957 4.07288 182.283 8.67759 180.621C16.0045 177.975 36.1933 171.864 48.4339 169.37C58.2795 167.364 67.2637 165.727 73.2954 164.768C72.7844 147.835 70.4485 107.198 71.9796 98.4218H103.416C101.948 106.838 89.5364 168.248 87.2296 174.395C86.4976 176.59 84.3133 177.56 81.8852 177.628Z" fill="#D4A181"/>
<path fill-rule="evenodd" clip-rule="evenodd" d="M9.01186 178.577C7.08547 178.219 5.67371 178.119 4.77659 178.277C3.68548 178.47 2.12532 178.932 0.0961263 179.664C0.319315 180.929 2.32515 192.298 6.11364 213.771C9.20187 214.14 10.6944 213.35 10.5913 211.399C10.4881 209.448 10.4193 207.825 10.3849 206.529L14.6593 189.43C14.7416 189.101 14.5414 188.768 14.2122 188.685C14.2065 188.684 14.2009 188.683 14.1952 188.681L11.5422 188.098C10.405 186.476 9.73889 185.112 9.54389 184.007C9.38546 183.109 9.52955 181.805 9.97614 180.095L9.97615 180.095C10.1475 179.439 9.75414 178.768 9.09748 178.596C9.06918 178.589 9.04062 178.583 9.01186 178.577Z" fill="#E4E4E4"/>
<path fill-rule="evenodd" clip-rule="evenodd" d="M129.637 236.213C128.95 238.046 128.606 239.418 128.606 240.329C128.606 241.436 128.791 243.052 129.16 245.176C130.445 245.176 141.996 245.176 163.813 245.176C164.714 242.201 164.194 240.595 162.254 240.357C160.314 240.12 158.702 239.906 157.419 239.715L141.312 232.539C141.002 232.401 140.639 232.54 140.501 232.85C140.498 232.855 140.496 232.86 140.494 232.866L139.459 235.375C137.662 236.213 136.203 236.632 135.08 236.632C134.168 236.632 132.908 236.263 131.3 235.527L131.3 235.527C130.683 235.244 129.954 235.515 129.671 236.132C129.659 236.158 129.648 236.185 129.637 236.213Z" fill="#E4E4E4"/>
<path fill-rule="evenodd" clip-rule="evenodd" d="M72.081 98.422C85.9339 94.461 99.0412 94.461 111.403 98.422C115.704 118.033 126.154 125.816 127.992 155.883C107.102 166.256 81.2971 148.485 59.793 158.601C53.6489 144.451 62.2506 110.374 72.081 98.422Z" fill="#2B44FF"/>
<path fill-rule="evenodd" clip-rule="evenodd" d="M131.678 74.0512L155.937 70.7443C160.789 68.0467 165.253 66.2206 169.329 65.2657C170.476 65.2322 172.301 65.6489 169.583 67.9136C166.865 70.1782 164.107 72.6834 164.591 73.892C165.075 75.1006 167.603 74.651 168.022 76.5099C168.301 77.7492 164.198 77.9506 155.714 77.114L136.031 84.913L131.678 74.0512ZM55.4736 79.6628L68.9274 79.7133C54.1749 112.892 46.4827 130.264 45.8509 131.829C44.4292 135.35 47.4377 140.713 48.7242 143.595C44.534 145.468 44.9804 138.529 39.6945 140.986C34.8698 143.23 31.1996 147.294 25.6254 143.857C24.9401 143.434 24.189 141.843 26.0036 140.6C30.5242 137.502 37.0387 132.08 37.9189 130.295C39.1192 127.862 44.9708 110.984 55.4736 79.6628Z" fill="#D4A181"/>
<path fill-rule="evenodd" clip-rule="evenodd" d="M92.3253 37.0182L102.859 37.7195C105.453 61.1764 119.585 75.9927 151.223 70.9768L155.426 101.184C125.855 105.003 99.9215 93.1716 94.6065 61.1366C93.2307 52.8437 92.1443 44.2134 92.3253 37.0182Z" fill="#AFB9C5"/>
<path fill-rule="evenodd" clip-rule="evenodd" d="M87.1283 33.9579L103.089 37.611C103.089 65.0456 111.833 82.5493 116.318 102.72H73.2138C72.6066 109.69 72.2338 116.854 72.0395 124.211H39.7645C47.0782 85.3207 62.5149 55.233 86.0747 33.9481H87.1199L87.1283 33.9579Z" fill="#C5CFD6"/>
<path fill-rule="evenodd" clip-rule="evenodd" d="M80.0145 63.5811C78.9037 80.6766 79.557 93.7229 81.9745 102.72H73.2138C74.4167 88.9129 76.5391 75.8665 80.0145 63.5811V63.5811Z" fill="black" fill-opacity="0.1"/>
</svg>
